<svg version="1.1" xmlns="http://www.w3.org/2000/svg" viewBox="-125.05761866141773 -9.617877616891551 250.11523732283547 19.235755233783102" fill="none" stroke="black" stroke-width="0.6%" vector-effect="non-scaling-stroke">
    <path d="M 81.03212 7.36865 L 81.03212 -2.62707 C 98.96 -2.63 107.64 -2.98 103.76116 -3.19357 C 98.96 -2.63 107.64 -2.98 102.10417 -3.47579 C 96.56 -3.97 98.68 -4.17 99.29044 -3.88268 C 96.56 -3.97 98.68 -4.17 113.18155 -4.47349 C 127.68 -4.78 127.68 -5.21 124.05762 -4.998 C 127.68 -4.78 127.68 -5.21 113.17994 -5.52253 C 98.68 -5.83 96.56 -6.02 99.28701 -6.11336 C 98.68 -5.83 96.56 -6.02 102.09948 -6.5202 C 107.64 -7.02 98.95 -7.37 103.75561 -6.80236 C 107.64 -7.02 98.95 -7.37 81.02482 -7.36886 C 63.1 -7.37 57.56 -7.49 52.01888 -7.98543 C 46.48 -8.48 32.42 -8.62 17.92097 -8.30955 C 3.42 -8 -3.43 -8 -17.93117 -8.30951 C -32.43 -8.62 -46.49 -8.48 -52.02808 -7.98529 C -57.57 -7.49 -63.11 -7.37 -81.03212 -7.36865 C -98.96 -7.37 -107.64 -7.02 -103.76116 -6.80215 C -98.96 -7.37 -107.64 -7.02 -102.10417 -6.51993 C -96.56 -6.02 -98.68 -5.83 -99.29044 -6.11304 C -96.56 -6.02 -98.68 -5.83 -113.18155 -5.52223 C -127.68 -5.21 -127.68 -4.78 -124.05762 -4.99772 C -127.68 -5.21 -127.68 -4.78 -113.17994 -4.47319 C -98.68 -4.16 -96.56 -3.97 -99.28701 -3.88236 C -98.68 -4.16 -96.56 -3.97 -102.09948 -3.47552 C -107.64 -2.98 -98.95 -2.63 -103.75561 -3.19336 C -107.64 -2.98 -98.95 -2.63 -81.02482 -2.62686 C -63.1 -2.63 -57.56 -2.51 -52.01888 -2.01029 C -46.48 -1.51 -32.42 -1.38 -17.92097 -1.68616 C -3.42 -1.99 3.43 -1.99 17.93117 -1.68621 C 32.43 -1.38 46.49 -1.51 52.02808 -2.01043 C 57.57 -2.51 63.11 -2.63 81.03212 -2.62707" />
    <path d="M 81.03212 7.36865 C 98.96 7.37 107.64 7.02 103.76116 6.80215 L 103.76116 -3.19357" />
    <path d="M 103.76116 5.76455 C 96.56 6.02 98.68 5.83 113.18155 5.52223 C 127.68 5.21 127.68 4.78 124.05762 4.99772 L 124.05762 -4.998" />
    <path d="M -124.05762 4.998 C -127.68 4.78 -127.68 5.21 -113.17994 5.52253 L -113.17994 -4.47319" />
    <path d="M -113.17994 5.52253 C -98.68 5.83 -96.56 6.02 -103.75561 5.76493" />
    <path d="M -103.75561 6.80236 C -107.64 7.02 -98.95 7.37 -81.02482 7.36886 L -81.02482 -2.62686" />
    <path d="M -81.02482 7.36886 C -63.1 7.37 -57.56 7.49 -52.01888 7.98543 L -52.01888 -2.01029" />
    <path d="M -52.01888 7.98543 C -46.48 8.48 -32.42 8.62 -17.92097 8.30955 L -17.92097 -1.68616" />
    <path d="M -17.92097 8.30955 C -3.42 8 3.43 8 17.93117 8.30951 L 17.93117 -1.68621" />
    <path d="M 17.93117 8.30951 C 32.43 8.62 46.49 8.48 52.02808 7.98529 L 52.02808 -2.01043" />
    <path d="M 52.02808 7.98529 C 57.57 7.49 63.11 7.37 81.03212 7.36865" />
    <path d="M 113.18155 5.52223 L 113.18155 -4.47349" />
    <path d="M 102.09948 -5.83013 L 102.09948 -6.5202" />
    <path d="M -102.10417 -5.82977 L -102.10417 -6.51993" />
    <path d="M 103.75561 -5.76493 L 103.75561 -6.80236" />
    <path d="M -103.76116 -5.76455 L -103.76116 -6.80215" />
    <path d="M -124.05762 4.998 L -124.05762 -4.99772" />
    <path d="M -103.75561 6.80236 L -103.75561 -3.19336" />
</svg>