<svg version="1.1" xmlns="http://www.w3.org/2000/svg" viewBox="-50.57358043307394 -31.05502312417519 99.30555069597288 62.11692020812175" fill="none" stroke="black" stroke-width="0.6%" vector-effect="non-scaling-stroke">
    <path d="M -9.59735 -30.05502 C 3.56 -29.8 3.93 -29.58 0.57291 -29.67421 C 3.56 -29.8 3.93 -29.58 -8.35633 -29.30266 C -20.64 -29.03 -20.27 -28.81 -17.28557 -28.9311 C -20.64 -29.03 -20.27 -28.81 -7.1153 -28.55029 C 6.04 -28.29 6.41 -28.07 3.05497 -28.16948 C 6.04 -28.29 6.41 -28.07 -5.87427 -27.79792 C -18.16 -27.52 -17.79 -27.3 -14.80351 -27.42637 C -18.16 -27.52 -17.79 -27.3 -4.63324 -27.04556 C 8.53 -26.79 8.89 -26.57 5.53703 -26.66475 C 8.53 -26.79 8.89 -26.57 -3.39222 -26.29319 C -15.67 -26.02 -15.31 -25.8 -12.32146 -25.92164 C -15.67 -26.02 -15.31 -25.8 -2.15119 -25.54083 C 11.01 -25.28 11.37 -25.06 8.01908 -25.16001 C 11.01 -25.28 11.37 -25.06 -0.91016 -24.78846 C -13.19 -24.51 -12.83 -24.29 -9.8394 -24.41691 C -13.19 -24.51 -12.83 -24.29 0.33087 -24.03609 C 13.49 -23.78 13.85 -23.56 10.50114 -23.65528 C 13.49 -23.78 13.85 -23.56 1.5719 -23.28373 C -10.71 -23.01 -10.35 -22.79 -7.35735 -22.91217 C -10.71 -23.01 -10.35 -22.79 2.81292 -22.53136 C 15.97 -22.27 16.34 -22.05 12.98319 -22.15055 C 15.97 -22.27 16.34 -22.05 4.05395 -21.779 C -8.23 -21.5 -7.86 -21.28 -4.87529 -21.40744 C -8.23 -21.5 -7.86 -21.28 5.29498 -21.02663 C 18.45 -20.77 18.82 -20.55 15.46525 -20.64582 C 18.45 -20.77 18.82 -20.55 6.53601 -20.27426 C -5.75 -20 -5.38 -19.78 -2.39324 -19.90271 C -5.75 -20 -5.38 -19.78 7.77703 -19.5219 C 20.94 -19.27 21.3 -19.04 17.9473 -19.14108 C 20.94 -19.27 21.3 -19.04 9.01806 -18.76953 C -3.26 -18.49 -2.9 -18.27 0.08882 -18.39798 C -3.26 -18.49 -2.9 -18.27 10.25909 -18.01716 C 23.42 -17.76 23.78 -17.54 20.42936 -17.63635 C 23.42 -17.76 23.78 -17.54 11.50012 -17.2648 C -0.78 -16.99 -0.42 -16.77 2.57088 -16.89325 C -0.78 -16.99 -0.42 -16.77 12.74115 -16.51243 C 25.9 -16.26 26.26 -16.04 22.91141 -16.13162 C 25.9 -16.26 26.26 -16.04 13.98217 -15.76007 C 1.7 -15.48 2.06 -15.26 5.05293 -15.38851 C 1.7 -15.48 2.06 -15.26 15.2232 -15.0077 C 28.38 -14.75 28.75 -14.53 25.39347 -14.62689 C 28.38 -14.75 28.75 -14.53 16.46423 -14.25533 C 4.18 -13.98 4.55 -13.76 7.53499 -13.88378 C 4.18 -13.98 4.55 -13.76 17.70526 -13.50297 C 30.86 -13.25 31.23 -13.03 27.87553 -13.12216 C 30.86 -13.25 31.23 -13.03 18.94628 -12.7506 C 6.66 -12.48 7.03 -12.26 10.01704 -12.37905 C 6.66 -12.48 7.03 -12.26 20.18731 -11.99824 C 33.35 -11.74 33.71 -11.52 30.35758 -11.61742 C 33.35 -11.74 33.71 -11.52 21.42834 -11.24587 C 9.15 -10.97 9.51 -10.75 12.4991 -10.87432 C 9.15 -10.97 9.51 -10.75 22.66937 -10.4935 C 35.83 -10.24 36.19 -10.02 32.83964 -10.11269 C 35.83 -10.24 36.19 -10.02 23.91039 -9.74114 C 11.63 -9.47 11.99 -9.25 14.98115 -9.36958 C 11.63 -9.47 11.99 -9.25 25.15142 -8.98877 C 38.31 -8.73 38.67 -8.51 35.32169 -8.60796 C 38.31 -8.73 38.67 -8.51 26.39245 -8.23641 C 14.11 -7.96 14.47 -7.74 17.46321 -7.86485 C 14.11 -7.96 14.47 -7.74 27.63348 -7.48404 C 40.79 -7.23 41.16 -7.01 37.80375 -7.10323 C 40.79 -7.23 41.16 -7.01 28.87451 -6.73167 C 16.59 -6.46 16.96 -6.24 19.94526 -6.36012 C 16.59 -6.46 16.96 -6.24 30.11553 -5.97931 C 43.27 -5.72 43.64 -5.5 40.2858 -5.59849 C 43.27 -5.72 43.64 -5.5 31.35656 -5.22694 C 19.07 -4.95 19.44 -4.73 22.42732 -4.85539 C 19.07 -4.95 19.44 -4.73 32.59759 -4.47458 C 45.76 -4.22 46.12 -4 42.76786 -4.09376 C 45.76 -4.22 46.12 -4 33.83862 -3.72221 C 21.56 -3.45 21.92 -3.23 24.90938 -3.35066 C 21.56 -3.45 21.92 -3.23 35.07964 -2.96984 C 48.24 -2.71 48.6 -2.49 45.24991 -2.58903 C 48.24 -2.71 48.6 -2.49 36.32067 -2.21748 C 24.04 -1.94 24.4 -1.72 27.39143 -1.84592 C 24.04 -1.94 24.4 -1.72 37.5617 -1.46511 C 50.72 -1.21 51.08 -0.99 47.73197 -1.0843 C 50.72 -1.21 51.08 -0.99 38.80273 -0.71275 C 26.52 -0.44 26.88 -0.22 29.87349 -0.34119 C 26.52 -0.44 26.88 -0.22 40.04376 0.03962 L 0.06753 0.06846 L -49.57358 -30.02619 L -9.59735 -30.05502 Z" />
    <path d="M 47.73197 28.90914 C 50.72 28.79 51.08 29.01 40.04376 29.25205" />
    <path d="M 40.04376 30.03306 L 40.04376 0.03962" />
    <path d="M 0.06753 30.0619 L 0.06753 0.06846" />
    <path d="M 40.04376 30.03306 L 0.06753 30.0619 L -49.57358 -0.03275 L -49.57358 -30.02619" />
    <path d="M -8.35633 -28.57519 L -8.35633 -29.30266" />
    <path d="M -5.87427 -27.07046 L -5.87427 -27.79792" />
    <path d="M -3.39222 -25.56572 L -3.39222 -26.29319" />
    <path d="M -0.91016 -24.06099 L -0.91016 -24.78846" />
    <path d="M 1.5719 -22.55626 L 1.5719 -23.28373" />
    <path d="M 4.05395 -21.05153 L 4.05395 -21.779" />
    <path d="M 6.53601 -19.5468 L 6.53601 -20.27426" />
    <path d="M 9.01806 -18.04206 L 9.01806 -18.76953" />
    <path d="M 11.50012 -16.53733 L 11.50012 -17.2648" />
    <path d="M 13.98217 -15.0326 L 13.98217 -15.76007" />
    <path d="M 16.46423 -13.52787 L 16.46423 -14.25533" />
    <path d="M 18.94628 -12.02313 L 18.94628 -12.7506" />
    <path d="M 21.42834 -10.5184 L 21.42834 -11.24587" />
    <path d="M 23.91039 -9.01367 L 23.91039 -9.74114" />
    <path d="M 26.39245 -7.50894 L 26.39245 -8.23641" />
    <path d="M 28.87451 -6.00421 L 28.87451 -6.73167" />
    <path d="M 31.35656 -4.49947 L 31.35656 -5.22694" />
    <path d="M 33.83862 -2.99474 L 33.83862 -3.72221" />
    <path d="M 36.32067 -1.49001 L 36.32067 -2.21748" />
    <path d="M 38.80273 0.01472 L 38.80273 -0.71275" />
    <path d="M 0.57291 -28.35514 L 0.57291 -29.67421" />
    <path d="M 3.05497 -26.85041 L 3.05497 -28.16948" />
    <path d="M 5.53703 -25.34568 L 5.53703 -26.66475" />
    <path d="M 8.01908 -23.84094 L 8.01908 -25.16001" />
    <path d="M 10.50114 -22.33621 L 10.50114 -23.65528" />
    <path d="M 12.98319 -20.83148 L 12.98319 -22.15055" />
    <path d="M 15.46525 -19.32675 L 15.46525 -20.64582" />
    <path d="M 17.9473 -17.82202 L 17.9473 -19.14108" />
    <path d="M 20.42936 -16.31728 L 20.42936 -17.63635" />
    <path d="M 22.91141 -14.81255 L 22.91141 -16.13162" />
    <path d="M 25.39347 -13.30782 L 25.39347 -14.62689" />
    <path d="M 27.87553 -11.80309 L 27.87553 -13.12216" />
    <path d="M 30.35758 -10.29835 L 30.35758 -11.61742" />
    <path d="M 32.83964 -8.79362 L 32.83964 -10.11269" />
    <path d="M 35.32169 -7.28889 L 35.32169 -8.60796" />
    <path d="M 37.80375 -5.78416 L 37.80375 -7.10323" />
    <path d="M 40.2858 -4.27943 L 40.2858 -5.59849" />
    <path d="M 42.76786 -2.77469 L 42.76786 -4.09376" />
    <path d="M 45.24991 -1.26996 L 45.24991 -2.58903" />
    <path d="M 47.73197 28.90914 L 47.73197 -1.0843" />
</svg>